<?xml version="1.0" encoding="UTF-8"?>
<svg id="Capa_1" data-name="Capa 1" xmlns="http://www.w3.org/2000/svg" version="1.1" viewBox="0 0 512 512">
  <defs>
    <style>
      .cls-1 {
        fill: #902bf5;
        stroke-width: 0px;
      }
    </style>
  </defs>
  <path class="cls-1" d="M317.7,98.1h30v30h-30v-30Z"/>
  <path class="cls-1" d="M377.8,98.1h30v30h-30v-30Z"/>
  <path class="cls-1" d="M448.4,422.6l-.2-222.9,19.9-34.6-.2-165.1h-44.5l-36.1,36.1h-48.4L302.9,0h-45.2v172l-40,25.4c6.5-15.6,9.9-32.6,9.7-50-.5-69.7-58.3-126.5-128.7-126.5h-16c-24.8,0-45.1,20.2-45.1,45.1s20.2,45.1,45.1,45.1h17.3c20.6,0,37.3,16.8,37.3,37.3s-3.9,19.4-10.9,26.4l-28,28c-19.8,19.8-30.7,46.2-30.7,74.2v235.1h407v-63.3l-26.1-26.1h-.2ZM119.5,224l28-28c12.7-12.7,19.7-29.6,19.7-47.6,0-37.2-30.2-67.4-67.4-67.4h-17.3c-8.3,0-15-6.7-15-15s6.7-15,15-15h16c54,0,98.3,43.4,98.7,96.7.2,26.3-9.1,51.9-28.5,69.7-26.4,24.2-59,51.4-71.2,77v-17.3c0-20,7.8-38.8,21.9-52.9v-.2ZM444.5,482h-44.9v-33.2l-26.1-26.1v-126h-30v138.5l26.1,26.1v20.8h-53.1v-33.2l-26.1-26.1-.2-24.1c-.2-26.9-10.8-52.1-29.9-71.1-19.1-18.9-44.4-29.4-71.3-29.4h-19.3v30h19.3c38.9,0,70.8,31.7,71.1,70.6l.3,36.4,26,26v20.8H97.6v-85.6c0-26.7,6.8-53.2,19.7-76.6,12.9-23.4,31.6-43.3,54.2-57.6l116.2-73.6V30h2.8l36.1,36.1h73.3l36.1-36.1h2l.2,127.1-19.2,34.6v244.6l25.6,24.9v20.8h-.1Z"/>
  <path class="cls-1" d="M347.8,128.2h30v30h-30v-30Z"/>
</svg>